<?xml version="1.0" standalone="no"?>
<!DOCTYPE svg PUBLIC "-//W3C//DTD SVG 20010904//EN"
 "http://www.w3.org/TR/2001/REC-SVG-20010904/DTD/svg10.dtd">
<svg version="1.0" xmlns="http://www.w3.org/2000/svg"
 width="1080.000000pt" height="1080.000000pt" viewBox="0 0 1080.000000 1080.000000"
 preserveAspectRatio="xMidYMid meet">
<metadata>
Created by potrace 1.14, written by Peter Selinger 2001-2017
</metadata>
<g transform="translate(0.000000,1080.000000) scale(0.100000,-0.100000)"
fill="#000000" stroke="none">
<path d="M6773 10785 c-34 -7 -73 -21 -87 -30 -36 -24 -69 -99 -112 -255 -43
-154 -67 -190 -127 -190 -42 0 -64 9 -194 83 -125 71 -166 86 -222 81 -69 -7
-128 -49 -291 -209 -262 -257 -344 -351 -367 -420 -20 -62 -2 -116 106 -310
53 -94 61 -133 39 -181 -15 -32 -59 -52 -194 -89 -54 -15 -107 -31 -116 -36
-10 -5 -23 -9 -30 -9 -25 0 -86 -53 -102 -88 -27 -62 -28 -84 -31 -477 l-3
-380 46 -43 c61 -56 154 -98 262 -117 65 -11 117 -33 145 -60 46 -43 48 -100
7 -166 -34 -53 -64 -77 -237 -191 -123 -81 -191 -132 -299 -222 -26 -21 -48
-37 -50 -35 -2 2 -6 96 -9 209 -2 114 -9 221 -16 241 -21 68 -65 102 -171 132
-115 33 -126 69 -58 201 34 67 39 84 34 118 -11 69 -73 145 -301 373 -325 325
-359 343 -505 266 -93 -48 -120 -51 -154 -14 -21 23 -43 75 -39 93 1 3 -11 30
-25 60 -50 102 -103 113 -512 114 -373 0 -463 -12 -509 -70 -10 -13 -29 -58
-42 -100 -26 -83 -56 -124 -92 -124 -13 0 -59 18 -102 40 -150 76 -181 61
-485 -240 -340 -337 -362 -376 -288 -518 22 -42 41 -89 43 -104 5 -42 -32 -73
-116 -98 -98 -29 -131 -55 -154 -122 -16 -47 -19 -92 -21 -378 -4 -512 4 -537
177 -590 89 -27 113 -47 112 -94 -1 -19 -10 -50 -22 -68 -79 -126 -74 -184 26
-303 83 -100 437 -451 517 -513 27 -21 28 -23 12 -47 -9 -13 -46 -57 -82 -97
-336 -372 -453 -897 -303 -1357 122 -373 398 -684 749 -844 80 -36 186 -73
233 -81 15 -3 53 -9 85 -15 31 -5 73 -12 92 -15 65 -10 327 -18 592 -20 l263
-1 -1 -350 c0 -192 -3 -367 -7 -387 -5 -24 -23 -54 -51 -83 l-44 -45 -576 0
c-535 0 -577 1 -594 17 -58 57 -122 107 -162 125 -212 97 -472 -77 -472 -316
0 -139 68 -247 202 -317 37 -19 61 -23 130 -24 75 0 93 4 150 31 36 17 83 48
105 68 22 21 48 42 59 48 22 12 150 16 711 23 226 2 424 6 440 9 17 2 46 6 65
7 126 12 353 236 374 369 13 88 19 236 20 519 l1 306 165 1 c91 1 170 -1 175
-3 6 -2 10 -49 8 -121 -1 -64 -4 -371 -8 -682 -7 -680 -9 -708 -42 -760 -20
-30 -95 -104 -126 -124 -48 -32 -96 -33 -1202 -41 l-920 -6 -60 55 c-91 85
-151 111 -255 111 -105 0 -159 -23 -235 -99 -78 -78 -100 -131 -100 -241 0
-78 4 -98 27 -145 35 -72 99 -136 168 -169 45 -21 69 -26 135 -26 71 0 89 4
150 34 38 19 87 51 110 72 23 21 54 40 71 43 81 15 290 18 1782 27 l323 1 99
50 c180 89 285 194 372 373 l48 100 4 480 c3 264 5 613 6 776 l1 297 157 0
c86 0 164 -2 172 -4 17 -4 15 151 25 -1799 l4 -839 52 -106 c131 -270 271
-405 517 -500 28 -11 64 -22 80 -25 15 -3 37 -7 49 -9 62 -13 286 -19 744 -20
l506 -2 34 -38 c19 -22 36 -42 39 -45 18 -22 100 -64 152 -77 121 -31 239 5
324 99 134 149 128 355 -15 486 -147 133 -323 125 -486 -23 l-60 -54 -545 3
c-300 2 -565 6 -590 10 -146 20 -216 54 -317 157 -71 73 -95 113 -111 183 -31
134 -35 289 -36 1510 l-1 1090 173 1 172 1 1 -106 c0 -58 2 -275 4 -481 2
-206 4 -591 6 -855 l3 -480 48 -88 c80 -146 127 -205 219 -275 62 -47 193
-112 238 -118 17 -2 46 -6 64 -9 46 -7 549 -15 1175 -19 601 -4 536 3 612 -65
55 -50 89 -72 144 -90 157 -55 331 25 411 187 24 48 29 70 29 137 1 99 -28
168 -100 242 -91 91 -201 125 -314 96 -64 -16 -119 -50 -189 -116 l-50 -47
-673 5 c-786 6 -974 11 -1045 26 -41 8 -65 21 -108 60 -30 28 -63 65 -73 82
-38 62 -39 97 -47 1168 l-5 746 171 0 c117 0 172 -3 174 -11 2 -6 6 -175 9
-376 5 -383 7 -417 33 -490 40 -111 217 -282 321 -309 75 -20 134 -22 942 -28
l824 -5 60 -54 c33 -30 86 -68 119 -84 52 -26 67 -29 140 -27 67 2 92 8 137
31 73 37 125 88 163 161 27 53 31 70 31 145 1 72 -3 94 -25 141 -32 68 -102
140 -172 176 -45 24 -64 28 -137 28 -104 0 -164 -26 -255 -109 l-60 -55 -836
-1 -836 0 -47 50 c-25 27 -46 57 -47 67 0 10 -2 27 -5 38 -2 11 -5 175 -6 365
l-1 345 259 1 c493 3 681 19 879 79 71 21 204 81 260 117 68 44 111 72 115 77
3 3 30 25 60 48 122 92 273 281 352 438 213 423 213 856 1 1264 -70 135 -140
229 -263 352 -118 118 -213 189 -365 269 -50 26 -81 49 -81 59 -2 94 -17 178
-78 423 -16 64 -78 222 -127 326 -31 67 -55 122 -51 122 4 0 47 -22 95 -50
174 -97 251 -111 333 -58 53 33 462 435 518 508 46 60 57 106 41 175 -12 52
-19 67 -104 228 -56 106 -61 136 -31 184 20 34 51 46 244 99 217 59 224 76
224 557 0 501 4 493 -302 577 -150 42 -181 65 -181 137 0 42 9 65 66 163 124
215 125 260 10 397 -58 69 -276 291 -381 386 -168 155 -216 158 -432 33 -53
-30 -117 -61 -142 -68 -41 -11 -51 -10 -81 6 -39 21 -50 44 -94 204 -56 200
-76 228 -193 259 -13 4 -174 7 -358 9 -247 1 -351 -1 -397 -11z m590 -442 c10
-38 19 -77 22 -87 21 -89 58 -172 89 -200 54 -48 353 -166 423 -166 47 0 126
32 232 96 l94 56 139 -139 139 -139 -56 -94 c-64 -109 -95 -186 -95 -236 0
-48 52 -199 110 -320 63 -131 80 -142 303 -200 l107 -29 -2 -194 -3 -195 -135
-33 c-181 -44 -200 -58 -268 -193 -57 -113 -114 -276 -114 -326 0 -40 33 -118
100 -232 l54 -94 -137 -134 c-75 -74 -141 -134 -147 -134 -6 0 -49 23 -95 51
-159 96 -236 109 -370 62 -36 -12 -75 -23 -85 -23 -22 0 -55 20 -123 74 -115
92 -163 156 -117 156 22 0 124 41 207 82 273 138 470 383 545 678 58 227 44
444 -42 665 -27 69 -80 169 -98 185 -3 3 -18 22 -33 43 -40 54 -178 189 -246
242 -333 255 -887 252 -1227 -8 -101 -77 -254 -237 -254 -265 0 -6 -4 -12 -8
-14 -16 -6 -71 -107 -106 -195 -91 -229 -99 -487 -21 -718 32 -95 90 -210 150
-296 24 -35 42 -65 40 -67 -2 -2 -44 -6 -93 -7 -49 -2 -118 -6 -153 -10 -133
-16 -115 -30 -184 142 -76 186 -105 236 -155 269 -34 23 -131 55 -276 93 l-41
11 1 192 1 192 127 36 c178 51 205 65 244 126 63 98 155 355 147 408 -7 47
-47 134 -103 227 l-50 84 139 139 139 139 86 -52 c106 -65 194 -101 242 -101
87 0 405 134 441 186 27 39 46 90 77 209 15 55 29 106 31 113 3 9 52 12 198
12 l193 0 17 -67z m-8 -1008 c105 -30 267 -154 348 -265 38 -53 83 -141 93
-180 4 -19 9 -42 11 -50 9 -38 3 -274 -7 -326 -31 -150 -188 -337 -353 -420
-107 -55 -315 -85 -431 -63 -108 20 -266 114 -358 212 -50 54 -102 132 -136
205 -25 53 -27 67 -29 217 -2 119 1 175 13 218 44 168 244 381 415 443 24 8
71 18 104 22 91 11 274 4 330 -13z m-4014 -494 c3 0 11 -20 18 -43 32 -108 82
-155 226 -212 102 -41 153 -56 216 -62 48 -5 64 -2 109 20 28 14 60 26 70 26
19 0 224 -195 255 -243 18 -27 17 -29 -10 -83 -44 -87 -32 -176 50 -367 48
-111 93 -158 181 -187 l64 -22 0 -179 c0 -98 -3 -179 -7 -180 -16 -1 -102 -8
-178 -14 -44 -4 -105 -8 -135 -11 -57 -4 -102 -10 -157 -20 l-33 -6 -1 178
c-1 242 -3 251 -75 397 -105 212 -210 318 -414 421 -138 70 -183 79 -366 79
-177 0 -226 -10 -353 -69 -202 -95 -327 -217 -428 -419 -71 -141 -76 -162 -79
-348 -1 -92 2 -186 7 -210 26 -122 137 -320 236 -420 115 -117 347 -233 502
-252 64 -8 101 -21 101 -35 0 -5 -26 -74 -57 -152 -58 -146 -86 -189 -119
-183 -11 2 -27 4 -36 4 -10 1 -26 9 -36 19 -66 62 -317 162 -409 162 -28 0
-64 -10 -99 -27 -40 -19 -59 -24 -74 -17 -28 13 -229 213 -246 245 -12 23 -10
31 13 75 35 66 33 135 -6 251 -73 218 -118 275 -248 313 l-42 13 -1 193 0 194
27 6 c135 33 189 96 263 313 42 122 43 187 6 259 l-27 54 26 34 c46 60 219
225 242 230 14 4 37 -2 60 -17 55 -33 153 -31 258 5 90 31 210 88 238 114 21
19 58 89 76 142 l11 35 187 -1 c104 -1 191 -2 194 -3z m-29 -871 c142 -53 254
-163 324 -316 22 -49 27 -76 30 -159 5 -150 -27 -237 -133 -353 -167 -185
-385 -236 -591 -137 -91 44 -216 163 -257 244 -76 152 -74 301 8 455 51 96
175 210 275 253 105 45 244 51 344 13z m3253 -344 c11 -2 41 -9 67 -15 161
-37 419 -157 552 -257 170 -129 358 -336 458 -507 74 -127 150 -329 173 -462
2 -16 7 -39 9 -50 3 -18 10 -82 22 -220 3 -43 13 -112 20 -137 1 -5 2 -14 3
-22 1 -18 65 -58 211 -134 161 -83 232 -133 330 -231 200 -201 303 -449 302
-731 -1 -425 -270 -805 -683 -966 -90 -35 -138 -42 -309 -49 -620 -25 -3860
-26 -4595 -1 -187 7 -238 14 -314 42 -255 96 -455 270 -579 504 -87 164 -123
319 -118 505 4 135 5 141 31 234 97 350 364 626 710 734 76 24 172 40 292 51
117 10 158 56 207 232 41 148 98 269 176 372 242 322 643 489 1005 419 44 -9
101 -23 128 -31 26 -8 47 -12 47 -10 0 2 12 -1 26 -6 41 -16 117 -22 144 -12
30 12 53 34 145 137 99 112 227 237 316 309 201 160 486 280 724 304 83 8 465
7 500 -2z"/>
<path d="M5739 6796 c-2 -2 -53 -7 -114 -10 -148 -9 -273 -23 -370 -41 -416
-77 -651 -214 -739 -431 -31 -75 -36 -107 -41 -224 -4 -116 18 -215 69 -298
70 -116 143 -143 251 -92 47 22 62 34 93 74 30 39 28 71 -10 147 -44 87 -51
201 -18 271 26 57 82 109 146 139 62 28 211 65 299 74 39 4 84 9 100 10 17 2
74 6 128 10 92 5 98 4 93 -12 -6 -21 -14 -57 -20 -93 -4 -23 -62 -299 -72
-345 -2 -11 -9 -47 -14 -80 -5 -33 -12 -71 -15 -85 -3 -14 -13 -63 -21 -110
-8 -47 -17 -96 -20 -110 -2 -14 -15 -97 -29 -185 -14 -88 -37 -227 -50 -310
-13 -82 -27 -168 -30 -190 -4 -22 -8 -51 -11 -65 -11 -63 -42 -286 -49 -350
-9 -88 -8 -173 3 -200 14 -34 59 -76 104 -94 26 -11 59 -15 110 -12 107 6 168
38 203 106 14 28 18 47 30 175 3 33 8 78 10 100 9 80 36 291 40 315 2 14 11
77 20 140 9 63 18 126 20 140 5 31 43 266 49 300 3 14 7 41 10 60 3 19 12 71
20 115 9 44 18 96 21 115 6 33 33 175 101 534 l28 148 211 -6 c197 -6 256 -9
430 -21 234 -16 284 -17 321 -5 75 24 114 81 114 165 0 104 -76 167 -230 190
-25 4 -53 9 -62 10 -9 2 -52 7 -95 11 -43 3 -91 8 -108 11 -37 5 -901 14 -906
9z"/>
</g>
</svg>
